<svg width="24" height="24" viewBox="0 0 24 24" fill="none" xmlns="http://www.w3.org/2000/svg">
<path d="M24 0V24H0V0H24Z" fill="white" fill-opacity="0.01"/>
<path d="M12 2.66406C17.1563 2.66406 21.3281 6.83594 21.3281 11.9844C21.3281 17.1328 17.1563 21.3125 12 21.3125C6.84375 21.3125 2.67188 17.1406 2.67188 11.9922C2.67188 6.84375 6.84375 2.66406 12 2.66406Z" fill="#E74D89"/>
<path d="M12 21.9766C6.48438 21.9766 2 17.5 2 11.9922C2 6.47656 6.48438 2 12 2C17.5156 2 22 6.47656 22 11.9844C22 17.4922 17.5156 21.9766 12 21.9766ZM20.4297 13.3516C20.1406 13.2578 17.7891 12.5625 15.1094 12.9844C16.2266 16.0469 16.6797 18.5469 16.7656 19.0625C18.6875 17.7734 20.0547 15.7266 20.4297 13.3516ZM15.3359 19.8516C15.2109 19.1016 14.7109 16.4922 13.5156 13.3828C13.5 13.3906 13.4766 13.3984 13.4609 13.3984C8.64062 15.0781 6.91406 18.4141 6.75781 18.7266C8.20312 19.8516 10.0234 20.5234 12 20.5234C13.1797 20.5312 14.3125 20.2891 15.3359 19.8516ZM5.65625 17.7031C5.85156 17.375 8.19531 13.5 12.6016 12.0703C12.7109 12.0312 12.8281 12 12.9375 11.9688C12.7266 11.4844 12.4922 11 12.2422 10.5234C7.97656 11.7969 3.83594 11.7422 3.46094 11.7344C3.46094 11.8203 3.45312 11.9062 3.45312 11.9922C3.46094 14.1875 4.28906 16.1875 5.65625 17.7031ZM3.64062 10.25C4.02344 10.2578 7.53906 10.2734 11.5391 9.21094C10.125 6.69531 8.59375 4.58594 8.375 4.28125C5.97656 5.40625 4.19531 7.60938 3.64062 10.25ZM10 3.70312C10.2344 4.01562 11.7891 6.125 13.1875 8.69531C16.2266 7.55469 17.5078 5.83594 17.6641 5.61719C16.1562 4.28125 14.1719 3.46875 12 3.46875C11.3125 3.46875 10.6406 3.55469 10 3.70312ZM18.6094 6.60156C18.4297 6.84375 17 8.67969 13.8438 9.96875C14.0391 10.375 14.2344 10.7891 14.4141 11.2031C14.4766 11.3516 14.5391 11.5 14.6016 11.6406C17.4453 11.2812 20.2656 11.8594 20.5469 11.9141C20.5234 9.90625 19.8047 8.05469 18.6094 6.60156Z" fill="#B2215A"/>
</svg>
